<?xml version="1.0" standalone="no"?>
<!DOCTYPE svg PUBLIC "-//W3C//DTD SVG 20010904//EN"
 "http://www.w3.org/TR/2001/REC-SVG-20010904/DTD/svg10.dtd">
<svg version="1.0" xmlns="http://www.w3.org/2000/svg"
 width="1024.000000pt" height="1024.000000pt" viewBox="0 0 1024.000000 1024.000000"
 preserveAspectRatio="xMidYMid meet">

<g transform="translate(0.000000,1024.000000) scale(0.100000,-0.100000)"
fill="#000000" stroke="none">
<path d="M5075 8361 c-11 -5 -27 -17 -36 -27 -14 -16 -3774 -6175 -3846 -6299
-40 -69 -24 -149 37 -180 26 -13 459 -15 3897 -15 3848 0 3868 0 3901 20 51
31 68 101 37 159 -41 80 -3840 6299 -3860 6320 -25 25 -95 37 -130 22z m1864
-3319 c991 -1624 1801 -2955 1801 -2957 0 -3 -1627 -5 -3616 -5 -2011 0 -3614
4 -3612 9 16 43 3613 5920 3619 5914 4 -4 818 -1337 1808 -2961z"/>
</g>
</svg>
