<svg width="21" height="20" viewBox="0 0 21 20" fill="none" xmlns="http://www.w3.org/2000/svg">
<g clip-path="url(#clip0_7_3268)">
<path d="M7.01953 0.960842C6.71875 0.234279 5.92578 -0.15244 5.16797 0.0545917L1.73047 0.992092C1.05078 1.17959 0.578125 1.79678 0.578125 2.4999C0.578125 12.164 8.41406 19.9999 18.0781 19.9999C18.7812 19.9999 19.3984 19.5272 19.5859 18.8476L20.5234 15.4101C20.7305 14.6522 20.3438 13.8593 19.6172 13.5585L15.8672 11.996C15.2305 11.7304 14.4922 11.914 14.0586 12.4491L12.4805 14.3749C9.73047 13.0741 7.50391 10.8476 6.20312 8.09756L8.12891 6.52334C8.66406 6.08584 8.84766 5.35147 8.58203 4.71475L7.01953 0.964748V0.960842Z" fill="#374151"/>
</g>
<defs>
<clipPath id="clip0_7_3268">
<path d="M0.578125 0H20.5781V20H0.578125V0Z" fill="white"/>
</clipPath>
</defs>
</svg>
