<svg width="21" height="20" viewBox="0 0 21 20" fill="none" xmlns="http://www.w3.org/2000/svg">
<g clip-path="url(#clip0_7_3261)">
<path d="M18.5781 10C18.5781 12.1549 17.7221 14.2215 16.1984 15.7452C14.6746 17.269 12.608 18.125 10.4531 18.125C8.29824 18.125 6.23162 17.269 4.70788 15.7452C3.18415 14.2215 2.32812 12.1549 2.32812 10C2.32812 7.84512 3.18415 5.77849 4.70788 4.25476C6.23162 2.73102 8.29824 1.875 10.4531 1.875C12.608 1.875 14.6746 2.73102 16.1984 4.25476C17.7221 5.77849 18.5781 7.84512 18.5781 10ZM0.453125 10C0.453125 12.6522 1.50669 15.1957 3.38206 17.0711C5.25742 18.9464 7.80096 20 10.4531 20C13.1053 20 15.6488 18.9464 17.5242 17.0711C19.3996 15.1957 20.4531 12.6522 20.4531 10C20.4531 7.34784 19.3996 4.8043 17.5242 2.92893C15.6488 1.05357 13.1053 0 10.4531 0C7.80096 0 5.25742 1.05357 3.38206 2.92893C1.50669 4.8043 0.453125 7.34784 0.453125 10ZM9.51562 4.6875V10C9.51562 10.3125 9.67188 10.6055 9.93359 10.7812L13.6836 13.2812C14.1133 13.5703 14.6953 13.4531 14.9844 13.0195C15.2734 12.5859 15.1562 12.0078 14.7227 11.7188L11.3906 9.5V4.6875C11.3906 4.16797 10.9727 3.75 10.4531 3.75C9.93359 3.75 9.51562 4.16797 9.51562 4.6875Z" fill="white"/>
</g>
<defs>
<clipPath id="clip0_7_3261">
<path d="M0.453125 0H20.4531V20H0.453125V0Z" fill="white"/>
</clipPath>
</defs>
</svg>
