<svg width="22" height="24" viewBox="0 0 22 24" fill="none" xmlns="http://www.w3.org/2000/svg">
<g clip-path="url(#clip0_7_3275)">
<path d="M18.2609 4.55156C16.2969 2.58281 13.6812 1.5 10.9016 1.5C5.16406 1.5 0.495312 6.16875 0.495312 11.9062C0.495312 13.7391 0.973438 15.5297 1.88281 17.1094L0.40625 22.5L5.92344 21.0516C7.44219 21.8813 9.15312 22.3172 10.8969 22.3172H10.9016C16.6344 22.3172 21.4062 17.6484 21.4062 11.9109C21.4062 9.13125 20.225 6.52031 18.2609 4.55156ZM10.9016 20.5641C9.34531 20.5641 7.82187 20.1469 6.49531 19.3594L6.18125 19.1719L2.90938 20.0297L3.78125 16.8375L3.575 16.5094C2.70781 15.1313 2.25313 13.5422 2.25313 11.9062C2.25313 7.13906 6.13437 3.25781 10.9062 3.25781C13.2172 3.25781 15.3875 4.15781 17.0187 5.79375C18.65 7.42969 19.6531 9.6 19.6484 11.9109C19.6484 16.6828 15.6687 20.5641 10.9016 20.5641ZM15.6453 14.0859C15.3875 13.9547 14.1078 13.3266 13.8688 13.2422C13.6297 13.1531 13.4563 13.1109 13.2828 13.3734C13.1094 13.6359 12.6125 14.2172 12.4578 14.3953C12.3078 14.5688 12.1531 14.5922 11.8953 14.4609C10.3672 13.6969 9.36406 13.0969 8.35625 11.3672C8.08906 10.9078 8.62344 10.9406 9.12031 9.94687C9.20469 9.77344 9.1625 9.62344 9.09687 9.49219C9.03125 9.36094 8.51094 8.08125 8.29531 7.56094C8.08438 7.05469 7.86875 7.125 7.70938 7.11563C7.55938 7.10625 7.38594 7.10625 7.2125 7.10625C7.03906 7.10625 6.75781 7.17188 6.51875 7.42969C6.27969 7.69219 5.60938 8.32031 5.60938 9.6C5.60938 10.8797 6.54219 12.1172 6.66875 12.2906C6.8 12.4641 8.50156 15.0891 11.1125 16.2188C12.7625 16.9312 13.4094 16.9922 14.2344 16.8703C14.7359 16.7953 15.7719 16.2422 15.9875 15.6328C16.2031 15.0234 16.2031 14.5031 16.1375 14.3953C16.0766 14.2781 15.9031 14.2125 15.6453 14.0859Z" fill="white"/>
</g>
<defs>
<clipPath id="clip0_7_3275">
<path d="M0.40625 0H21.4062V24H0.40625V0Z" fill="white"/>
</clipPath>
</defs>
</svg>
