<svg width="1024" height="506" viewBox="0 0 1024 506" fill="none" xmlns="http://www.w3.org/2000/svg">
<path fill-rule="evenodd" clip-rule="evenodd" d="M39.5 49.5C354.167 49.5 668.833 49.5 983.5 49.5C983.832 153.404 983.499 257.237 982.5 361C668.167 361.5 353.834 361.667 39.5 361.5C39.5 257.5 39.5 153.5 39.5 49.5Z" fill="black"/>
<path fill-rule="evenodd" clip-rule="evenodd" d="M58.5 69.5C154.5 69.5 250.5 69.5 346.5 69.5C346.5 160.167 346.5 250.833 346.5 341.5C250.5 341.5 154.5 341.5 58.5 341.5C58.5 250.833 58.5 160.167 58.5 69.5Z" fill="#FEFCF9"/>
<path fill-rule="evenodd" clip-rule="evenodd" d="M467.5 76.5C479.489 74.6569 484.656 79.6569 483 91.5C479.723 97.1088 474.89 98.9422 468.5 97C462.223 94.6113 460.057 90.1113 462 83.5C462.967 80.3794 464.8 78.046 467.5 76.5Z" fill="#00903F"/>
<path fill-rule="evenodd" clip-rule="evenodd" d="M502.5 76.5001C513.749 74.6803 518.916 79.347 518 90.5001C514.677 96.9082 509.511 99.0749 502.5 97.0001C496.891 93.7232 495.058 88.8898 497 82.5001C498.36 79.9775 500.193 77.9775 502.5 76.5001Z" fill="#008C3E"/>
<path fill-rule="evenodd" clip-rule="evenodd" d="M420.5 79.5C439.433 80.7683 449.767 90.7683 451.5 109.5C452.217 124.578 445.551 134.744 431.5 140C439.375 152.917 447.375 165.751 455.5 178.5C448.189 179.665 440.856 179.831 433.5 179C426.288 167.412 419.454 155.579 413 143.5C408.263 142.531 403.43 142.197 398.5 142.5C398.829 155.011 398.495 167.345 397.5 179.5C391.69 178.51 385.69 178.177 379.5 178.5C379.5 145.833 379.5 113.167 379.5 80.5C393.344 80.829 407.01 80.4957 420.5 79.5Z" fill="#008C3D"/>
<path fill-rule="evenodd" clip-rule="evenodd" d="M680.5 79.5C681.331 91.9934 681.831 104.66 682 117.5C691.888 104.53 704.055 102.03 718.5 110C725.243 115.985 728.909 123.485 729.5 132.5C728.504 147.658 728.17 162.991 728.5 178.5C723.167 178.5 717.833 178.5 712.5 178.5C712.829 163.324 712.496 148.324 711.5 133.5C708.006 125.086 701.673 121.919 692.5 124C687.288 126.247 683.788 130.08 682 135.5C681.831 150.339 681.331 165.006 680.5 179.5C680.667 166.496 680.5 153.496 680 140.5C679.5 153.162 679.333 165.829 679.5 178.5C674.5 178.5 669.5 178.5 664.5 178.5C664.5 146.167 664.5 113.833 664.5 81.5C669.5 81.5 674.5 81.5 679.5 81.5C679.333 93.5046 679.5 105.505 680 117.5C680.5 104.838 680.667 92.1711 680.5 79.5Z" fill="#008A3D"/>
<path fill-rule="evenodd" clip-rule="evenodd" d="M680.5 79.5C680.667 92.1711 680.5 104.838 680 117.5C679.5 105.505 679.333 93.5046 679.5 81.5C674.5 81.5 669.5 81.5 664.5 81.5C664.5 113.833 664.5 146.167 664.5 178.5C669.5 178.5 674.5 178.5 679.5 178.5C679.333 165.829 679.5 153.162 680 140.5C680.5 153.496 680.667 166.496 680.5 179.5C674.5 179.5 668.5 179.5 662.5 179.5C662.5 146.167 662.5 112.833 662.5 79.5C668.5 79.5 674.5 79.5 680.5 79.5Z" fill="#009E43"/>
<path fill-rule="evenodd" clip-rule="evenodd" d="M398.5 96.5001C406.585 96.099 414.585 96.599 422.5 98.0001C430.902 102.528 433.402 109.361 430 118.5C427.897 122.934 424.397 125.434 419.5 126C412.508 126.5 405.508 126.666 398.5 126.5C398.5 116.5 398.5 106.5 398.5 96.5001Z" fill="#000100"/>
<path fill-rule="evenodd" clip-rule="evenodd" d="M818.5 137.5C818.301 146.14 816.301 154.473 812.5 162.5C812.624 163.107 812.957 163.44 813.5 163.5C805.244 175.381 793.744 181.381 779 181.5C751.948 178.082 739.615 162.749 742 135.5C749.379 111.546 765.546 102.046 790.5 107C806.562 110.938 815.895 121.105 818.5 137.5Z" fill="#008D3E"/>
<path fill-rule="evenodd" clip-rule="evenodd" d="M620.5 105.5C634.503 103.877 645.503 108.71 653.5 120C649.033 123.465 644.867 127.298 641 131.5C637.733 125.698 632.733 123.032 626 123.5C614.88 124.792 609.046 131.126 608.5 142.5C608.043 153.104 612.71 160.27 622.5 164C630.375 165.286 636.709 162.786 641.5 156.5C645.921 159.71 649.921 163.377 653.5 167.5C644.786 179.354 633.119 183.854 618.5 181C602.09 177.257 592.59 167.091 590 150.5C587.076 126.308 597.243 111.308 620.5 105.5Z" fill="#008E3E"/>
<path fill-rule="evenodd" clip-rule="evenodd" d="M861.5 105.5C887.764 104.449 902.764 116.783 906.5 142.5C904.727 166.98 891.561 179.98 867 181.5C837.383 178.224 824.716 161.891 829 132.5C834.623 117.029 845.456 108.029 861.5 105.5Z" fill="#008D3D"/>
<path fill-rule="evenodd" clip-rule="evenodd" d="M463.5 108.5C468.975 107.511 474.642 107.178 480.5 107.5C480.5 131.167 480.5 154.833 480.5 178.5C475.167 178.5 469.833 178.5 464.5 178.5C464.831 154.994 464.498 131.661 463.5 108.5Z" fill="#008A3D"/>
<path fill-rule="evenodd" clip-rule="evenodd" d="M497.5 204.5C494.375 203.521 491.042 203.187 487.5 203.5C487.817 199.298 487.483 195.298 486.5 191.5C492.202 191.313 495.702 188.313 497 182.5C497.5 157.502 497.667 132.502 497.5 107.5C503.5 107.5 509.5 107.5 515.5 107.5C515.667 134.169 515.5 160.835 515 187.5C512.61 196.723 506.777 202.39 497.5 204.5Z" fill="#008F3E"/>
<path fill-rule="evenodd" clip-rule="evenodd" d="M546.5 106.5C560.012 104.289 571.678 107.789 581.5 117C578.353 120.981 575.02 124.814 571.5 128.5C565.214 122.794 557.881 120.627 549.5 122C545.556 123.965 544.556 126.965 546.5 131C555.413 134.25 564.413 137.25 573.5 140C582.096 146.393 584.929 154.893 582 165.5C579.002 173.164 573.502 177.997 565.5 180C553.59 181.843 542.256 180.177 531.5 175C528.872 173.374 526.539 171.374 524.5 169C528 164.833 531.5 160.667 535 156.5C541.872 164.124 550.372 166.957 560.5 165C564.809 162.427 565.476 159.094 562.5 155C553.263 152.751 544.263 149.751 535.5 146C524.246 133.687 524.912 122.021 537.5 111C540.592 109.454 543.592 107.954 546.5 106.5Z" fill="#008E3E"/>
<path fill-rule="evenodd" clip-rule="evenodd" d="M774.5 123.5C790.238 121.41 798.571 128.244 799.5 144C796.51 162.16 786.51 167.826 769.5 161C761.587 153.645 759.42 144.812 763 134.5C765.437 129.226 769.271 125.56 774.5 123.5Z" fill="#000200"/>
<path fill-rule="evenodd" clip-rule="evenodd" d="M861.5 123.5C881.923 122.768 889.756 132.435 885 152.5C881.276 160.534 874.943 164.534 866 164.5C852.432 161.717 846.432 153.384 848 139.5C849.849 131.826 854.349 126.492 861.5 123.5Z" fill="#000100"/>
<path fill-rule="evenodd" clip-rule="evenodd" d="M918.5 79.5C924.5 79.5 930.5 79.5 936.5 79.5C936.5 112.833 936.5 146.167 936.5 179.5C930.5 179.5 924.5 179.5 918.5 179.5C918.5 146.167 918.5 112.833 918.5 79.5Z" fill="#00C852"/>
<path fill-rule="evenodd" clip-rule="evenodd" d="M919.5 80.5C924.833 80.5 930.167 80.5 935.5 80.5C935.5 113.167 935.5 145.833 935.5 178.5C930.167 178.5 924.833 178.5 919.5 178.5C919.5 145.833 919.5 113.167 919.5 80.5Z" fill="#00893C"/>
<path fill-rule="evenodd" clip-rule="evenodd" d="M818.5 137.5C819.39 146.716 817.723 155.382 813.5 163.5C812.957 163.44 812.624 163.107 812.5 162.5C816.301 154.473 818.301 146.14 818.5 137.5Z" fill="#01B74C"/>
<path fill-rule="evenodd" clip-rule="evenodd" d="M729.5 132.5C729.5 148.167 729.5 163.833 729.5 179.5C723.5 179.5 717.5 179.5 711.5 179.5C711.5 164.167 711.5 148.833 711.5 133.5C712.496 148.324 712.829 163.324 712.5 178.5C717.833 178.5 723.167 178.5 728.5 178.5C728.17 162.991 728.504 147.658 729.5 132.5Z" fill="#00C14F"/>
<path fill-rule="evenodd" clip-rule="evenodd" d="M480.5 107.5C481.498 131.328 481.831 155.328 481.5 179.5C475.5 179.5 469.5 179.5 463.5 179.5C463.5 155.833 463.5 132.167 463.5 108.5C464.498 131.661 464.831 154.994 464.5 178.5C469.833 178.5 475.167 178.5 480.5 178.5C480.5 154.833 480.5 131.167 480.5 107.5Z" fill="#00C952"/>
<path fill-rule="evenodd" clip-rule="evenodd" d="M420.5 79.5C407.01 80.4957 393.344 80.829 379.5 80.5C379.5 113.167 379.5 145.833 379.5 178.5C385.69 178.177 391.69 178.51 397.5 179.5C391.167 179.5 384.833 179.5 378.5 179.5C378.5 146.167 378.5 112.833 378.5 79.5C392.5 79.5 406.5 79.5 420.5 79.5Z" fill="#00B84C"/>
<path fill-rule="evenodd" clip-rule="evenodd" d="M486.5 191.5C487.483 195.298 487.817 199.298 487.5 203.5C491.042 203.187 494.375 203.521 497.5 204.5C493.833 204.5 490.167 204.5 486.5 204.5C486.5 200.167 486.5 195.833 486.5 191.5Z" fill="#00C650"/>
<path fill-rule="evenodd" clip-rule="evenodd" d="M173.5 166.5C190.584 165.946 207.584 166.78 224.5 169C228.99 170.274 233.323 171.941 237.5 174C248.5 181 259.5 188 270.5 195C281.737 197.762 293.07 200.095 304.5 202C324.89 206.962 333.724 219.796 331 240.5C329.932 245.235 327.099 248.402 322.5 250C318.23 251.075 313.897 251.575 309.5 251.5C308.981 234.648 300.314 225.648 283.5 224.5C266.894 226.44 258.228 235.773 257.5 252.5C224.501 253.825 191.501 253.825 158.5 252.5C157.428 231.611 146.428 222.444 125.5 225C113.405 229.611 106.738 238.445 105.5 251.5C97.8888 250.264 90.5555 248.097 83.5 245C73.4036 236.143 71.9036 225.976 79 214.5C79.3333 209.833 79.6667 205.167 80 200.5C80.8333 197 83 194.833 86.5 194C93.1235 192.72 99.7902 191.72 106.5 191C118.714 185.06 131.047 179.393 143.5 174C153.365 170.4 163.365 167.9 173.5 166.5Z" fill="#DF1C10"/>
<path fill-rule="evenodd" clip-rule="evenodd" d="M165.5 178.5C170.5 178.5 175.5 178.5 180.5 178.5C180.833 185.833 181.167 193.167 181.5 200.5C164.589 200.825 147.756 200.492 131 199.5C130.48 197.711 130.813 196.044 132 194.5C141.428 185.419 152.594 180.085 165.5 178.5Z" fill="#FEFAF8"/>
<path fill-rule="evenodd" clip-rule="evenodd" d="M193.5 177.5C210.337 175.834 226.003 179.334 240.5 188C246.01 191.588 251.343 195.422 256.5 199.5C235.167 202.167 213.833 202.167 192.5 199.5C191.529 192.548 190.862 185.548 190.5 178.5C191.791 178.737 192.791 178.404 193.5 177.5Z" fill="#FEFAF6"/>
<path fill-rule="evenodd" clip-rule="evenodd" d="M803.5 215.5C832.083 212.526 850.916 224.526 860 251.5C864.933 272.685 859.766 290.851 844.5 306C825.972 318.379 806.639 319.713 786.5 310C768.603 296.671 761.436 278.838 765 256.5C769.162 234.509 781.996 220.842 803.5 215.5Z" fill="#F47800"/>
<path fill-rule="evenodd" clip-rule="evenodd" d="M727.5 217.5C743.293 218.96 751.627 227.627 752.5 243.5C751.964 252.41 747.964 259.244 740.5 264C753.569 270.652 758.069 281.152 754 295.5C750.432 305.236 743.598 311.236 733.5 313.5C717.368 313.415 701.034 313.415 684.5 313.5C684.5 281.833 684.5 250.167 684.5 218.5C699.01 218.829 713.343 218.496 727.5 217.5Z" fill="#F37400"/>
<path fill-rule="evenodd" clip-rule="evenodd" d="M455.5 216.5C472.714 215.884 484.548 223.551 491 239.5C498.301 261.233 496.634 282.233 486 302.5C472.656 317.195 457.489 319.361 440.5 309C432.616 300.732 427.783 290.899 426 279.5C422.563 259.236 427.063 241.07 439.5 225C444.208 220.815 449.542 217.981 455.5 216.5Z" fill="#E31B0D"/>
<path fill-rule="evenodd" clip-rule="evenodd" d="M531.5 217.5C546.872 215.104 558.705 220.438 567 233.5C575.836 253.063 576.836 273.063 570 293.5C559.427 314.802 543.26 320.636 521.5 311C511.927 302.69 506.427 292.19 505 279.5C502.299 262.029 505.299 245.696 514 230.5C518.63 224.346 524.463 220.013 531.5 217.5Z" fill="#E31C0D"/>
<path fill-rule="evenodd" clip-rule="evenodd" d="M918.5 217.5C938.073 221.298 945.573 232.965 941 252.5C938.739 256.929 935.572 260.596 931.5 263.5C942.974 269.786 947.474 279.453 945 292.5C943.81 297.213 941.81 301.547 939 305.5C937.362 307.734 935.195 309.067 932.5 309.5C928.265 310.966 923.932 312.133 919.5 313C904.504 313.5 889.504 313.667 874.5 313.5C874.5 281.833 874.5 250.167 874.5 218.5C889.343 218.829 904.01 218.496 918.5 217.5Z" fill="#F47400"/>
<path fill-rule="evenodd" clip-rule="evenodd" d="M399.5 217.5C402.962 218.482 406.629 218.815 410.5 218.5C410.5 250.167 410.5 281.833 410.5 313.5C405.167 313.5 399.833 313.5 394.5 313.5C394.831 288.328 394.498 263.328 393.5 238.5C388.693 241.74 383.693 244.74 378.5 247.5C376.093 243.186 374.093 238.686 372.5 234C373.34 232.233 374.673 230.899 376.5 230C383.944 225.281 391.611 221.114 399.5 217.5Z" fill="#E11B0E"/>
<path fill-rule="evenodd" clip-rule="evenodd" d="M592.5 225.5C611.945 223.774 620.112 232.441 617 251.5C610.988 261.842 602.155 265.342 590.5 262C579.841 256.034 576.675 247.201 581 235.5C583.818 230.839 587.651 227.505 592.5 225.5Z" fill="#E41D0E"/>
<path fill-rule="evenodd" clip-rule="evenodd" d="M457.5 233.5C466.452 232.728 471.952 236.728 474 245.5C477.547 260.591 477.213 275.591 473 290.5C466.558 301.074 458.891 302.074 450 293.5C447.248 288.162 445.582 282.495 445 276.5C443.141 263.634 444.807 251.3 450 239.5C452.134 236.847 454.634 234.847 457.5 233.5Z" fill="#020000"/>
<path fill-rule="evenodd" clip-rule="evenodd" d="M536.5 233.5C542.148 233.03 546.648 235.03 550 239.5C552.742 244.133 554.409 249.133 555 254.5C556.264 266.382 555.264 278.049 552 289.5C545.354 301.497 537.354 302.497 528 292.5C525.437 287.478 524.104 282.145 524 276.5C522.141 263.634 523.807 251.3 529 239.5C531.114 236.879 533.614 234.879 536.5 233.5Z" fill="#020000"/>
<path fill-rule="evenodd" clip-rule="evenodd" d="M729.5 237.5C721.091 234.807 712.425 233.807 703.5 234.5C702.671 241.655 702.171 248.989 702 256.5C701.5 248.841 701.334 241.174 701.5 233.5C709.174 233.334 716.841 233.5 724.5 234C726.881 234.223 728.547 235.39 729.5 237.5Z" fill="#FA9D01"/>
<path fill-rule="evenodd" clip-rule="evenodd" d="M918.5 217.5C904.01 218.496 889.343 218.829 874.5 218.5C874.5 250.167 874.5 281.833 874.5 313.5C889.504 313.667 904.504 313.5 919.5 313C923.932 312.133 928.265 310.966 932.5 309.5C932.389 310.117 932.056 310.617 931.5 311C926.625 312.802 921.625 314.135 916.5 315C902.171 315.5 887.837 315.667 873.5 315.5C873.5 282.833 873.5 250.167 873.5 217.5C888.5 217.5 903.5 217.5 918.5 217.5Z" fill="#F0A301"/>
<path fill-rule="evenodd" clip-rule="evenodd" d="M920.5 238.5C917.739 236.788 914.739 235.622 911.5 235C905.509 234.501 899.509 234.334 893.5 234.5C892.671 241.989 892.171 249.656 892 257.5C891.5 249.507 891.334 241.507 891.5 233.5C899.174 233.334 906.841 233.5 914.5 234C917.274 234.624 919.274 236.124 920.5 238.5Z" fill="#F89602"/>
<path fill-rule="evenodd" clip-rule="evenodd" d="M279.5 231.5C295.483 231.647 302.983 239.647 302 255.5C297.136 267.847 288.302 272.014 275.5 268C264.632 260.696 262.132 251.196 268 239.5C271.15 235.689 274.983 233.023 279.5 231.5Z" fill="#DE1B0F"/>
<path fill-rule="evenodd" clip-rule="evenodd" d="M703.5 234.5C712.425 233.807 721.091 234.807 729.5 237.5C733.526 243.389 733.192 249.056 728.5 254.5C725.598 255.578 722.598 256.244 719.5 256.5C714.167 256.5 708.833 256.5 703.5 256.5C703.5 249.167 703.5 241.833 703.5 234.5Z" fill="#030100"/>
<path fill-rule="evenodd" clip-rule="evenodd" d="M805.5 234.5C823.142 232.395 834.642 239.729 840 256.5C843.131 270.153 839.964 281.986 830.5 292C820.708 298.093 810.374 299.093 799.5 295C789.083 288 784.083 278.167 784.5 265.5C784.83 250.471 791.83 240.138 805.5 234.5Z" fill="#010000"/>
<path fill-rule="evenodd" clip-rule="evenodd" d="M893.5 234.5C899.509 234.334 905.509 234.501 911.5 235C914.739 235.622 917.739 236.788 920.5 238.5C924.878 247.108 922.544 252.941 913.5 256C906.842 256.5 900.175 256.666 893.5 256.5C893.5 249.167 893.5 241.833 893.5 234.5Z" fill="#010000"/>
<path fill-rule="evenodd" clip-rule="evenodd" d="M595.5 235.5C604.649 235.156 608.149 239.49 606 248.5C600.485 255.368 595.485 255.035 591 247.5C589.474 242.239 590.974 238.239 595.5 235.5Z" fill="#060100"/>
<path fill-rule="evenodd" clip-rule="evenodd" d="M128.5 231.5C147.679 232.539 154.512 242.206 149 260.5C142.006 269.727 133.173 271.894 122.5 267C110.962 256.69 110.628 246.023 121.5 235C123.925 233.787 126.259 232.621 128.5 231.5Z" fill="#DE1B0F"/>
<path fill-rule="evenodd" clip-rule="evenodd" d="M637.5 226.5C641.182 226.335 644.848 226.501 648.5 227C631.455 254.919 614.789 283.086 598.5 311.5C594.878 312.659 591.211 312.825 587.5 312C604.821 283.855 621.487 255.355 637.5 226.5Z" fill="#E61E0E"/>
<path fill-rule="evenodd" clip-rule="evenodd" d="M683.5 217.5C683.5 249.833 683.5 282.167 683.5 314.5C696.833 314.5 710.167 314.5 723.5 314.5C710.01 315.496 696.344 315.829 682.5 315.5C682.168 282.662 682.502 249.996 683.5 217.5Z" fill="#934E00"/>
<path fill-rule="evenodd" clip-rule="evenodd" d="M728.5 254.5C726.458 256.83 723.792 257.996 720.5 258C714.5 258.667 708.5 258.667 702.5 258C708.348 257.827 714.015 257.327 719.5 256.5C722.598 256.244 725.598 255.578 728.5 254.5Z" fill="#FDA200"/>
<path fill-rule="evenodd" clip-rule="evenodd" d="M893.5 272.5C901.99 271.343 910.657 271.176 919.5 272C927.672 277.54 929.505 284.706 925 293.5C920.982 297.236 916.482 298.57 911.5 297.5C924.207 296.748 928.374 290.415 924 278.5C921.036 274.951 917.203 273.118 912.5 273C906.175 272.5 899.842 272.334 893.5 272.5Z" fill="#EF8C01"/>
<path fill-rule="evenodd" clip-rule="evenodd" d="M703.5 272.5C710.175 272.334 716.842 272.5 723.5 273C728.705 273.759 732.705 276.259 735.5 280.5C737.204 290.286 733.204 295.786 723.5 297C716.842 297.5 710.175 297.666 703.5 297.5C703.5 289.167 703.5 280.833 703.5 272.5Z" fill="#030100"/>
<path fill-rule="evenodd" clip-rule="evenodd" d="M893.5 272.5C899.842 272.334 906.175 272.5 912.5 273C917.203 273.118 921.036 274.951 924 278.5C928.374 290.415 924.207 296.748 911.5 297.5C905.5 297.5 899.5 297.5 893.5 297.5C893.5 289.167 893.5 280.833 893.5 272.5Z" fill="#030100"/>
<path fill-rule="evenodd" clip-rule="evenodd" d="M633.5 273.5C648.339 271.572 657.005 277.905 659.5 292.5C656.124 308.528 646.457 314.362 630.5 310C620.665 304.505 617.498 296.338 621 285.5C623.744 279.921 627.911 275.921 633.5 273.5Z" fill="#E41E0E"/>
<path fill-rule="evenodd" clip-rule="evenodd" d="M703.5 272.5C710.321 271.345 717.321 271.179 724.5 272C727.376 272.438 730.043 273.438 732.5 275C734.607 276.264 735.607 278.097 735.5 280.5C732.705 276.259 728.705 273.759 723.5 273C716.842 272.5 710.175 272.334 703.5 272.5Z" fill="#FAA001"/>
<path fill-rule="evenodd" clip-rule="evenodd" d="M636.5 283.5C644.813 283.312 648.313 287.312 647 295.5C645.268 300.617 641.768 302.45 636.5 301C631.845 298.103 630.345 293.937 632 288.5C633.025 286.313 634.525 284.646 636.5 283.5Z" fill="#050000"/>
<path fill-rule="evenodd" clip-rule="evenodd" d="M399.5 217.5C403.833 217.5 408.167 217.5 412.5 217.5C412.5 250.167 412.5 282.833 412.5 315.5C406.167 315.5 399.833 315.5 393.5 315.5C393.5 289.833 393.5 264.167 393.5 238.5C394.498 263.328 394.831 288.328 394.5 313.5C399.833 313.5 405.167 313.5 410.5 313.5C410.5 281.833 410.5 250.167 410.5 218.5C406.629 218.815 402.962 218.482 399.5 217.5Z" fill="#E61C0E"/>
<path fill-rule="evenodd" clip-rule="evenodd" d="M683.5 217.5C698.167 217.5 712.833 217.5 727.5 217.5C713.343 218.496 699.01 218.829 684.5 218.5C684.5 250.167 684.5 281.833 684.5 313.5C701.034 313.415 717.368 313.415 733.5 313.5C730.214 314.207 726.881 314.54 723.5 314.5C710.167 314.5 696.833 314.5 683.5 314.5C683.5 282.167 683.5 249.833 683.5 217.5Z" fill="#FEB101"/>
<path fill-rule="evenodd" clip-rule="evenodd" d="M86.5 402.5C89.5 402.5 92.5 402.5 95.5 402.5C95.5 421.167 95.5 439.833 95.5 458.5C92.5 458.5 89.5 458.5 86.5 458.5C86.5 439.833 86.5 421.167 86.5 402.5Z" fill="#DD1A0E"/>
<path fill-rule="evenodd" clip-rule="evenodd" d="M128.5 402.5C134.82 402.32 137.32 405.32 136 411.5C130.692 415.78 126.859 414.613 124.5 408C125.007 405.455 126.341 403.621 128.5 402.5Z" fill="#DE1C0F"/>
<path fill-rule="evenodd" clip-rule="evenodd" d="M911.5 403.5C914.972 402.963 917.805 403.963 920 406.5C920.9 411.032 919.066 413.698 914.5 414.5C909.149 412.087 908.149 408.42 911.5 403.5Z" fill="#DD1D10"/>
<path fill-rule="evenodd" clip-rule="evenodd" d="M658.5 402.5C666.489 402.319 668.822 405.819 665.5 413C660.303 415.567 656.97 414.067 655.5 408.5C655.984 406.199 656.984 404.199 658.5 402.5Z" fill="#DE1E10"/>
<path fill-rule="evenodd" clip-rule="evenodd" d="M926.5 402.5C929.833 402.5 933.167 402.5 936.5 402.5C936.5 421.167 936.5 439.833 936.5 458.5C933.167 458.5 929.833 458.5 926.5 458.5C926.5 439.833 926.5 421.167 926.5 402.5Z" fill="#E02D1D"/>
<path fill-rule="evenodd" clip-rule="evenodd" d="M945.5 403.5C953.162 403.027 955.496 406.193 952.5 413C947.323 415.745 944.323 414.245 943.5 408.5C943.437 406.486 944.103 404.819 945.5 403.5Z" fill="#DD190D"/>
<path fill-rule="evenodd" clip-rule="evenodd" d="M389.5 403.5C398.891 403.147 408.225 403.647 417.5 405C425.305 408.781 428.138 414.947 426 423.5C424.413 426.756 421.913 428.923 418.5 430C428.782 434.696 431.282 442.196 426 452.5C424.457 454.378 422.624 455.878 420.5 457C410.246 458.426 399.912 458.926 389.5 458.5C389.5 440.167 389.5 421.833 389.5 403.5Z" fill="#DE1B0F"/>
<path fill-rule="evenodd" clip-rule="evenodd" d="M638.5 402.5C646.489 402.319 648.822 405.819 645.5 413C640.039 415.603 636.705 413.936 635.5 408C636.124 405.915 637.124 404.082 638.5 402.5Z" fill="#DE2113"/>
<path fill-rule="evenodd" clip-rule="evenodd" d="M724.5 404.5C727.167 404.5 729.833 404.5 732.5 404.5C732.5 422.5 732.5 440.5 732.5 458.5C729.167 458.5 725.833 458.5 722.5 458.5C722.667 444.163 722.5 429.829 722 415.5C719.227 416.926 716.393 418.26 713.5 419.5C710.869 417.112 710.203 414.279 711.5 411C715.981 408.91 720.314 406.743 724.5 404.5Z" fill="#DF2616"/>
<path fill-rule="evenodd" clip-rule="evenodd" d="M195.5 404.5C198.5 404.5 201.5 404.5 204.5 404.5C204.5 422.5 204.5 440.5 204.5 458.5C201.167 458.5 197.833 458.5 194.5 458.5C194.833 444.151 194.499 429.818 193.5 415.5C190.382 416.559 187.382 417.892 184.5 419.5C182.77 417.207 181.437 414.707 180.5 412C185.735 409.768 190.735 407.268 195.5 404.5Z" fill="#DD180C"/>
<path fill-rule="evenodd" clip-rule="evenodd" d="M321.5 403.5C336.232 403.708 341.399 410.708 337 424.5C329.255 432.393 321.588 432.393 314 424.5C309.454 414.971 311.954 407.971 321.5 403.5Z" fill="#DE1B0E"/>
<path fill-rule="evenodd" clip-rule="evenodd" d="M617.5 402.5C620.833 402.5 624.167 402.5 627.5 402.5C627.5 421.167 627.5 439.833 627.5 458.5C624.167 458.5 620.833 458.5 617.5 458.5C617.5 439.833 617.5 421.167 617.5 402.5Z" fill="#DF2415"/>
<path fill-rule="evenodd" clip-rule="evenodd" d="M108.5 402.5C114.82 402.32 117.32 405.32 116 411.5C112.582 415.367 109.249 415.367 106 411.5C104.779 407.718 105.613 404.718 108.5 402.5Z" fill="#DE1D10"/>
<path fill-rule="evenodd" clip-rule="evenodd" d="M572.5 403.5C581.559 403.154 590.559 403.654 599.5 405C607.76 409.107 610.593 415.607 608 424.5C606.629 427.371 604.463 429.371 601.5 430.5C610.445 435.064 612.945 442.064 609 451.5C607.127 453.709 604.96 455.542 602.5 457C592.58 458.423 582.58 458.923 572.5 458.5C572.5 440.167 572.5 421.833 572.5 403.5Z" fill="#DD1B0F"/>
<path fill-rule="evenodd" clip-rule="evenodd" d="M352.5 404.5C354.924 404.192 357.257 404.526 359.5 405.5C348.469 422.7 337.635 440.034 327 457.5C324.534 458.777 322.034 458.777 319.5 457.5C330.261 439.637 341.261 421.971 352.5 404.5Z" fill="#DD190D"/>
<path fill-rule="evenodd" clip-rule="evenodd" d="M323.5 411.5C330.968 412.674 332.301 416.174 327.5 422C322.178 422.34 320.011 419.84 321 414.5C322.045 413.627 322.878 412.627 323.5 411.5Z" fill="#FEF7F5"/>
<path fill-rule="evenodd" clip-rule="evenodd" d="M495.5 403.5C504.552 403.193 513.552 403.693 522.5 405C531.54 409.248 534.374 416.082 531 425.5C529.316 427.351 527.483 429.018 525.5 430.5C534.417 435.755 536.583 443.089 532 452.5C530.457 454.378 528.624 455.878 526.5 457C516.232 458.399 505.898 458.899 495.5 458.5C495.5 440.167 495.5 421.833 495.5 403.5Z" fill="#DE1D10"/>
<path fill-rule="evenodd" clip-rule="evenodd" d="M399.5 412.5C403.846 412.334 408.179 412.501 412.5 413C416.828 415.89 417.661 419.723 415 424.5C414.25 425.126 413.416 425.626 412.5 426C408.179 426.499 403.846 426.666 399.5 426.5C399.5 421.833 399.5 417.167 399.5 412.5Z" fill="#FEF9F7"/>
<path fill-rule="evenodd" clip-rule="evenodd" d="M505.5 412.5C509.846 412.334 514.179 412.501 518.5 413C522.696 415.981 523.529 419.814 521 424.5C520.25 425.126 519.416 425.626 518.5 426C514.179 426.499 509.846 426.666 505.5 426.5C505.5 421.833 505.5 417.167 505.5 412.5Z" fill="#FEF9F7"/>
<path fill-rule="evenodd" clip-rule="evenodd" d="M582.5 412.5C586.514 412.334 590.514 412.501 594.5 413C601.167 417.333 601.167 421.667 594.5 426C590.514 426.499 586.514 426.666 582.5 426.5C582.5 421.833 582.5 417.167 582.5 412.5Z" fill="#FEF8F6"/>
<path fill-rule="evenodd" clip-rule="evenodd" d="M688.5 412.5C687.527 414.948 687.194 417.615 687.5 420.5C690.5 420.5 693.5 420.5 696.5 420.5C696.5 422.833 696.5 425.167 696.5 427.5C693.5 427.5 690.5 427.5 687.5 427.5C687.5 437.833 687.5 448.167 687.5 458.5C684.5 458.5 681.5 458.5 678.5 458.5C678.5 448.167 678.5 437.833 678.5 427.5C676.167 427.5 673.833 427.5 671.5 427.5C671.5 424.833 671.5 422.167 671.5 419.5C673.833 419.5 676.167 419.5 678.5 419.5C677.146 404.861 683.813 398.861 698.5 401.5C698.5 404.167 698.5 406.833 698.5 409.5C695.482 409.335 692.482 409.502 689.5 410C688.748 410.671 688.414 411.504 688.5 412.5Z" fill="#DE1C0F"/>
<path fill-rule="evenodd" clip-rule="evenodd" d="M155.5 401.5C159.833 401.5 164.167 401.5 168.5 401.5C168.5 404.167 168.5 406.833 168.5 409.5C159.675 407.328 156.009 410.661 157.5 419.5C160.5 419.5 163.5 419.5 166.5 419.5C166.5 422.167 166.5 424.833 166.5 427.5C163.5 427.5 160.5 427.5 157.5 427.5C157.5 437.833 157.5 448.167 157.5 458.5C154.167 458.5 150.833 458.5 147.5 458.5C147.5 448.167 147.5 437.833 147.5 427.5C145.167 427.5 142.833 427.5 140.5 427.5C140.5 424.833 140.5 422.167 140.5 419.5C142.833 419.5 145.167 419.5 147.5 419.5C145.896 411.389 148.563 405.389 155.5 401.5Z" fill="#DE1B0E"/>
<path fill-rule="evenodd" clip-rule="evenodd" d="M454.5 402.5C471.097 400.628 481.597 407.628 486 423.5C489.115 449.048 477.948 460.882 452.5 459C441.703 455.866 435.536 448.7 434 437.5C431.65 420.172 438.483 408.506 454.5 402.5Z" fill="#DE1D0F"/>
<path fill-rule="evenodd" clip-rule="evenodd" d="M455.5 412.5C465.14 410.897 471.64 414.564 475 423.5C476.098 430.385 475.431 437.051 473 443.5C464.312 452.728 455.645 452.728 447 443.5C444.105 436.302 443.772 428.969 446 421.5C447.871 417.006 451.038 414.006 455.5 412.5Z" fill="#FEFCF9"/>
<path fill-rule="evenodd" clip-rule="evenodd" d="M688.5 412.5C688.5 414.833 688.5 417.167 688.5 419.5C691.385 419.194 694.052 419.527 696.5 420.5C693.5 420.5 690.5 420.5 687.5 420.5C687.194 417.615 687.527 414.948 688.5 412.5Z" fill="#F28D80"/>
<path fill-rule="evenodd" clip-rule="evenodd" d="M277.5 403.5C291.28 401.976 299.78 407.976 303 421.5C304.822 432.44 303.156 442.774 298 452.5C289.707 460.4 280.54 461.567 270.5 456C265.383 451.336 262.55 445.503 262 438.5C259.475 426.423 262.309 415.923 270.5 407C272.925 405.787 275.259 404.621 277.5 403.5Z" fill="#DE1C0F"/>
<path fill-rule="evenodd" clip-rule="evenodd" d="M279.5 412.5C286.733 411.893 290.9 415.226 292 422.5C292.839 429.567 292.506 436.567 291 443.5C287.621 451.006 282.621 452.34 276 447.5C271.377 436.824 271.377 426.158 276 415.5C277.145 414.364 278.312 413.364 279.5 412.5Z" fill="#FEFBF9"/>
<path fill-rule="evenodd" clip-rule="evenodd" d="M883.5 418.5C899.239 418.322 905.905 425.988 903.5 441.5C895.833 442.167 888.167 442.833 880.5 443.5C884.467 451.967 890.467 453.633 898.5 448.5C903.745 451.219 903.745 454.052 898.5 457C891.305 460.58 884.305 460.247 877.5 456C874.769 453.374 872.936 450.207 872 446.5C869.971 437.342 871.805 429.176 877.5 422C879.727 421.059 881.727 419.892 883.5 418.5Z" fill="#DD1B0E"/>
<path fill-rule="evenodd" clip-rule="evenodd" d="M125.5 420.5C128.833 420.5 132.167 420.5 135.5 420.5C135.953 436.238 135.453 451.904 134 467.5C132.437 470.728 129.937 472.895 126.5 474C122.848 474.499 119.182 474.665 115.5 474.5C115.5 471.5 115.5 468.5 115.5 465.5C119.007 466.006 122.174 465.34 125 463.5C125.5 449.171 125.667 434.837 125.5 420.5Z" fill="#DF2314"/>
<path fill-rule="evenodd" clip-rule="evenodd" d="M754.5 403.5C768.388 402.212 776.221 408.546 778 422.5C778.88 430.966 778.214 439.299 776 447.5C769.818 460.001 760.652 462.834 748.5 456C741.377 446.335 738.877 435.502 741 423.5C741.871 414.17 746.371 407.503 754.5 403.5Z" fill="#DD1E10"/>
<path fill-rule="evenodd" clip-rule="evenodd" d="M757.5 412.5C763.871 412.032 767.371 415.032 768 421.5C768.856 429.232 768.523 436.898 767 444.5C763.154 451.466 758.487 452.133 753 446.5C750.131 437.599 749.798 428.599 752 419.5C752.967 416.379 754.8 414.046 757.5 412.5Z" fill="#FEFBF9"/>
<path fill-rule="evenodd" clip-rule="evenodd" d="M910.5 419.5C913.5 419.5 916.5 419.5 919.5 419.5C919.5 432.5 919.5 445.5 919.5 458.5C916.5 458.5 913.5 458.5 910.5 458.5C910.5 445.5 910.5 432.5 910.5 419.5Z" fill="#DE1C10"/>
<path fill-rule="evenodd" clip-rule="evenodd" d="M105.5 420.5C108.833 420.5 112.167 420.5 115.5 420.5C115.5 433.167 115.5 445.833 115.5 458.5C112.167 458.5 108.833 458.5 105.5 458.5C105.5 445.833 105.5 433.167 105.5 420.5Z" fill="#DE1F11"/>
<path fill-rule="evenodd" clip-rule="evenodd" d="M971.5 418.5C976.502 417.835 980.835 419.168 984.5 422.5C987.556 420.711 990.889 420.044 994.5 420.5C994.891 434.878 994.391 449.211 993 463.5C987.3 473.73 978.8 476.897 967.5 473C964.567 471.729 961.901 470.062 959.5 468C961.006 465.667 962.673 463.5 964.5 461.5C969.428 466.31 975.095 467.477 981.5 465C984.877 461.867 986.044 458.034 985 453.5C979.521 459.092 973.355 459.925 966.5 456C959.428 448 957.594 438.834 961 428.5C963.106 423.557 966.606 420.224 971.5 418.5Z" fill="#DD1F11"/>
<path fill-rule="evenodd" clip-rule="evenodd" d="M229.5 403.5C244.312 402.147 252.812 408.814 255 423.5C256.461 433.735 254.794 443.401 250 452.5C243.082 459.544 234.915 461.377 225.5 458C219.921 454.677 216.421 449.844 215 443.5C212.606 433.289 213.273 423.289 217 413.5C219.887 408.434 224.054 405.101 229.5 403.5Z" fill="#DE1B0E"/>
<path fill-rule="evenodd" clip-rule="evenodd" d="M231.5 412.5C238.75 411.912 242.917 415.246 244 422.5C244.839 429.567 244.506 436.567 243 443.5C239.621 451.006 234.621 452.34 228 447.5C223.377 436.824 223.377 426.158 228 415.5C229.145 414.364 230.312 413.364 231.5 412.5Z" fill="#FEFBF8"/>
<path fill-rule="evenodd" clip-rule="evenodd" d="M656.5 420.5C659.833 420.5 663.167 420.5 666.5 420.5C666.953 436.238 666.453 451.904 665 467.5C663.437 470.728 660.937 472.895 657.5 474C653.848 474.499 650.182 474.665 646.5 474.5C646.5 471.5 646.5 468.5 646.5 465.5C650.007 466.006 653.174 465.34 656 463.5C656.5 449.171 656.667 434.837 656.5 420.5Z" fill="#DE1A0E"/>
<path fill-rule="evenodd" clip-rule="evenodd" d="M834.5 419.5C837.777 419.216 840.943 419.549 844 420.5C846.822 429.454 849.489 438.454 852 447.5C854.73 438.475 857.564 429.475 860.5 420.5C863.784 419.343 867.118 419.176 870.5 420C865.864 432.741 861.531 445.574 857.5 458.5C853.833 458.5 850.167 458.5 846.5 458.5C842.5 445.501 838.5 432.501 834.5 419.5Z" fill="#DD1B0E"/>
<path fill-rule="evenodd" clip-rule="evenodd" d="M885.5 426.5C891.582 425.928 894.916 428.595 895.5 434.5C890.456 434.827 885.456 434.494 880.5 433.5C881.804 430.87 883.47 428.537 885.5 426.5Z" fill="#FEF9F8"/>
<path fill-rule="evenodd" clip-rule="evenodd" d="M974.5 426.5C983.863 427.193 987.363 432.193 985 441.5C983.751 448.096 979.917 450.596 973.5 449C968.912 444.811 967.412 439.645 969 433.5C969.967 430.379 971.8 428.046 974.5 426.5Z" fill="#FEFBF8"/>
<path fill-rule="evenodd" clip-rule="evenodd" d="M37.5 403.5C44.8409 403.334 52.1742 403.5 59.5 404C73.2606 405.082 78.4273 412.249 75 425.5C73.3163 427.351 71.4829 429.018 69.5 430.5C78.732 435.594 80.8986 442.928 76 452.5C74.4571 454.378 72.6238 455.878 70.5 457C59.5637 458.406 48.5637 458.906 37.5 458.5C37.5 440.167 37.5 421.833 37.5 403.5Z" fill="#DE1B0E"/>
<path fill-rule="evenodd" clip-rule="evenodd" d="M47.5 412.5C52.1785 412.334 56.8452 412.501 61.5 413C64.6829 414.018 66.0162 416.185 65.5 419.5C66.0162 422.815 64.6829 424.982 61.5 426C56.8452 426.499 52.1785 426.666 47.5 426.5C47.5 421.833 47.5 417.167 47.5 412.5Z" fill="#FEF4F0"/>
<path fill-rule="evenodd" clip-rule="evenodd" d="M636.5 420.5C639.833 420.5 643.167 420.5 646.5 420.5C646.5 433.167 646.5 445.833 646.5 458.5C643.167 458.5 639.833 458.5 636.5 458.5C636.5 445.833 636.5 433.167 636.5 420.5Z" fill="#DD2616"/>
<path fill-rule="evenodd" clip-rule="evenodd" d="M944.5 419.5C947.5 419.5 950.5 419.5 953.5 419.5C953.5 432.5 953.5 445.5 953.5 458.5C950.167 458.5 946.833 458.5 943.5 458.5C943.186 445.421 943.52 432.421 944.5 419.5Z" fill="#E02E1D"/>
<path fill-rule="evenodd" clip-rule="evenodd" d="M48.5 435.5C53.5111 435.334 58.5111 435.501 63.5 436C66.6829 437.018 68.0162 439.185 67.5 442.5C68.0162 445.815 66.6829 447.982 63.5 449C58.5111 449.499 53.5111 449.666 48.5 449.5C48.5 444.833 48.5 440.167 48.5 435.5Z" fill="#FEFCFA"/>
<path fill-rule="evenodd" clip-rule="evenodd" d="M399.5 435.5C404.511 435.334 409.511 435.501 414.5 436C418.696 438.981 419.529 442.814 417 447.5C416.25 448.126 415.416 448.626 414.5 449C409.511 449.499 404.511 449.666 399.5 449.5C399.5 444.833 399.5 440.167 399.5 435.5Z" fill="#FEF9F7"/>
<path fill-rule="evenodd" clip-rule="evenodd" d="M505.5 435.5C510.511 435.334 515.511 435.501 520.5 436C526.036 440.838 525.703 445.171 519.5 449C514.845 449.499 510.179 449.666 505.5 449.5C505.5 444.833 505.5 440.167 505.5 435.5Z" fill="#FEFCFA"/>
<path fill-rule="evenodd" clip-rule="evenodd" d="M582.5 435.5C587.511 435.334 592.511 435.501 597.5 436C600.265 438.995 601.098 442.495 600 446.5C599.097 447.701 597.931 448.535 596.5 449C591.845 449.499 587.179 449.666 582.5 449.5C582.5 444.833 582.5 440.167 582.5 435.5Z" fill="#FEFCFA"/>
<path fill-rule="evenodd" clip-rule="evenodd" d="M671.5 427.5C673.833 427.5 676.167 427.5 678.5 427.5C678.5 437.833 678.5 448.167 678.5 458.5C677.506 448.681 677.173 438.681 677.5 428.5C675.265 428.795 673.265 428.461 671.5 427.5Z" fill="#F5AEA6"/>
<path fill-rule="evenodd" clip-rule="evenodd" d="M351.5 432.5C364.851 433.677 369.684 440.677 366 453.5C360.557 459.413 354.057 460.913 346.5 458C339.93 452.175 338.763 445.342 343 437.5C345.682 435.415 348.516 433.748 351.5 432.5Z" fill="#DE1B0E"/>
<path fill-rule="evenodd" clip-rule="evenodd" d="M352.5 440.5C358.153 440.944 359.986 443.944 358 449.5C354.661 452.299 351.661 451.966 349 448.5C347.78 444.707 348.947 442.04 352.5 440.5Z" fill="#FEF7F5"/>
<path fill-rule="evenodd" clip-rule="evenodd" d="M797.5 403.5C811.674 403.164 819.507 410.164 821 424.5C822.125 433.092 821.125 441.426 818 449.5C811.296 460.158 802.463 462.325 791.5 456C783.685 444.953 781.519 432.786 785 419.5C786.81 412.205 790.976 406.872 797.5 403.5Z" fill="#DD1C0F"/>
<path fill-rule="evenodd" clip-rule="evenodd" d="M800.5 412.5C804.025 412.346 806.859 413.679 809 416.5C812.296 426.486 812.296 436.486 809 446.5C804.667 451.833 800.333 451.833 796 446.5C792.704 436.486 792.704 426.486 796 416.5C797.397 414.93 798.897 413.596 800.5 412.5Z" fill="#FEFCF9"/>
<path fill-rule="evenodd" clip-rule="evenodd" d="M542.5 447.5C547.434 446.937 550.1 449.104 550.5 454C550.477 461.233 547.31 466.399 541 469.5C540.5 469.167 540 468.833 539.5 468.5C541.951 465.6 543.285 462.266 543.5 458.5C540.535 458.27 539.202 456.603 539.5 453.5C539.467 450.898 540.467 448.898 542.5 447.5Z" fill="#DD180C"/>
<path fill-rule="evenodd" clip-rule="evenodd" d="M696.5 427.5C694.052 428.473 691.385 428.806 688.5 428.5C688.827 438.681 688.494 448.681 687.5 458.5C687.5 448.167 687.5 437.833 687.5 427.5C690.5 427.5 693.5 427.5 696.5 427.5Z" fill="#EF9D8E"/>
</svg>
